<?xml version="1.0" encoding="UTF-8" standalone="no"?>
<svg
   id="svg"
   version="1.1"
   width="550"
   height="550"
   viewBox="0 0 549.99999 550"
   sodipodi:docname="logo-socials.svg"
   inkscape:version="1.1.1 (3bf5ae0d25, 2021-09-20)"
   xmlns:inkscape="http://www.inkscape.org/namespaces/inkscape"
   xmlns:sodipodi="http://sodipodi.sourceforge.net/DTD/sodipodi-0.dtd"
   xmlns="http://www.w3.org/2000/svg"
   xmlns:svg="http://www.w3.org/2000/svg"
   xmlns:rdf="http://www.w3.org/1999/02/22-rdf-syntax-ns#"
   xmlns:cc="http://creativecommons.org/ns#"
   xmlns:dc="http://purl.org/dc/elements/1.1/">
  <metadata
     id="metadata2188">
    <rdf:RDF>
      <cc:Work
         rdf:about="">
        <dc:format>image/svg+xml</dc:format>
        <dc:type
           rdf:resource="http://purl.org/dc/dcmitype/StillImage" />
      </cc:Work>
    </rdf:RDF>
  </metadata>
  <defs
     id="defs2186" />
  <sodipodi:namedview
     pagecolor="#ffffff"
     bordercolor="#666666"
     borderopacity="1"
     objecttolerance="10"
     gridtolerance="10"
     guidetolerance="10"
     inkscape:pageopacity="0"
     inkscape:pageshadow="2"
     inkscape:window-width="1920"
     inkscape:window-height="1045"
     id="namedview2184"
     showgrid="false"
     fit-margin-top="10"
     fit-margin-left="10"
     fit-margin-right="10"
     fit-margin-bottom="10"
     inkscape:pagecheckerboard="true"
     inkscape:zoom="0.61665868"
     inkscape:cx="271.62514"
     inkscape:cy="227.02997"
     inkscape:window-x="0"
     inkscape:window-y="35"
     inkscape:window-maximized="1"
     inkscape:current-layer="layer2"
     lock-margins="true"
     inkscape:document-rotation="0"
     inkscape:snap-page="true"
     width="600px"
     inkscape:snap-center="true"
     inkscape:snap-object-midpoints="true"
     inkscape:snap-midpoints="true" />
  <g
     inkscape:groupmode="layer"
     id="layer2"
     inkscape:label="Trace"
     style="display:inline">
    <rect
       style="fill:#1a5972;fill-opacity:1;stroke:none;stroke-width:1.15535;stop-color:#000000;fill-rule:nonzero"
       id="rect175"
       width="550"
       height="550"
       x="3.5527137e-15"
       y="-7.1054274e-15" />
    <path
       style="fill:#fbfbfb;fill-opacity:1;stroke:none;stroke-width:7;stroke-miterlimit:4;stroke-dasharray:none;stroke-opacity:1"
       d="m 61.557834,489.98711 c -0.980073,-0.3872 -2.635005,-2.00441 -3.677627,-3.5938 l -1.895677,-2.88979 4.375229,-8.7116 4.375229,-8.7116 48.802402,-45.85729 c 26.84132,-25.22151 50.8274,-47.78947 53.3024,-50.15103 l 4.5,-4.29373 -5.1328,1.96592 -5.13279,1.96592 -1.96718,-2.18921 c -2.48396,-2.76431 -8.26723,-11.32379 -8.26723,-12.23584 0,-0.37745 3.88511,-4.35074 8.63358,-8.82953 l 8.63359,-8.14324 -3.67368,-7.29496 c -2.80041,-5.56087 -4.08015,-7.18066 -5.38359,-6.8141 -0.94044,0.26448 -6.18878,0.62657 -11.66297,0.80466 l -9.95307,0.3238 -1.72969,-6.5 c -2.93531,-11.03056 -3.19533,-10.5274 8.13583,-15.74339 l 10,-4.60322 v -5.7616 c 0,-9.65194 -0.4047,-10.1042 -11.91923,-13.32003 -5.56605,-1.55451 -10.421,-3.31325 -10.78877,-3.90831 -0.7226,-1.16919 -0.57563,-7.95828 0.29852,-13.79018 l 0.54362,-3.62672 8.18293,-0.67307 c 4.50061,-0.37018 9.63671,-1.13268 11.41355,-1.69443 3.39556,-1.07351 4.3664,-3.14916 5.83051,-12.46561 0.59893,-3.8111 0.44999,-4.16442 -2.20946,-5.2415 -1.56842,-0.63521 -11.17667,-2.27334 -21.35167,-3.6403 -10.175,-1.36695 -21.91057,-3.3577 -26.07906,-4.42387 -13.599684,-3.47841 -35.319076,-13.6927 -37.010789,-17.40561 -0.718995,-1.57802 -0.581513,-5.78495 0.464759,-14.22154 1.149249,-9.26694 1.218432,-12.3562 0.305436,-13.63878 -0.649193,-0.91198 -6.130352,-5.90862 -12.180352,-11.10363 -19.48182,-16.72865 -24.98251,-24.32409 -26.206855,-36.18685 -0.622434,-6.0308 1.386286,-27.04577 2.848567,-29.80136 0.555954,-1.04766 2.086473,-1.75 3.813579,-1.75 2.941328,0 55.599751,15.15631 59.022215,16.98796 1.03436,0.55357 2.72955,3.28214 3.76708,6.06347 l 1.88642,5.05698 4.0147,-5.36836 4.0147,-5.36836 -23.080204,-9.36097 C 58.06661,101.12598 57.865926,101.03065 56.856006,98.37436 c -1.257907,-3.308543 0.500869,-20.156711 2.407997,-23.067356 1.865266,-2.846755 9.603704,-5.431299 27.062203,-9.038444 29.577734,-6.111131 65.906284,-3.217739 84.767314,6.751305 8.08186,4.271689 19.28383,15.471329 23.55251,23.547622 3.63095,6.869693 10.96044,28.437603 13.74722,40.452813 l 1.78328,7.68862 2.78197,-1.43862 c 1.53008,-0.79123 3.00692,-1.43861 3.28186,-1.43861 0.27493,0 3.66586,3.7905 7.53539,8.42333 l 7.03552,8.42333 3.76426,-0.98935 c 2.07034,-0.54414 5.66296,-1.6905 7.9836,-2.54748 l 4.21934,-1.55813 0.28066,-11.6257 0.28066,-11.62572 7.77272,-1.42741 c 5.55313,-1.0198 8.08033,-1.11982 8.84991,-0.35023 0.59246,0.59245 2.57412,5.05972 4.40371,9.92727 l 3.32651,8.85009 8.89827,0.28521 8.89827,0.2852 3.31997,-9.7852 c 1.82599,-5.38186 3.64698,-10.15481 4.04665,-10.60655 0.39966,-0.45173 4.38456,-0.26137 8.85533,0.42302 l 8.12866,1.24436 v 11.74486 11.74486 l 7.75341,2.58212 c 4.26437,1.42016 8.2163,2.58212 8.78206,2.58212 0.56575,0 4.1252,-4.01808 7.90987,-8.92906 l 6.88121,-8.92907 7.91277,3.97846 7.91276,3.97846 7.17396,-6.74619 c 3.94568,-3.7104 23.08269,-21.84513 42.5267,-40.29939 24.19707,-22.965388 36.50364,-33.968128 39,-34.868104 2.22736,-0.803001 6.7617,-1.192306 11.64726,-1 10.50854,0.413637 17.56215,3.788826 26.16578,12.520457 10.57136,10.728641 18.44122,30.259097 15.76548,39.124837 -0.65589,2.17318 -13.94199,15.69069 -44.93126,45.71382 -24.2,23.44552 -45.31255,43.91063 -46.91677,45.478 l -2.91677,2.84978 4.22927,-1.0735 c 2.45669,-0.62358 4.58332,-0.70153 5.07402,-0.186 1.612,1.69357 6.15169,13.62865 5.66564,14.89527 -0.26875,0.70035 -4.57165,4.09813 -9.56201,7.55061 -10.06659,6.96439 -9.95449,6.70979 -7.23938,16.44162 l 1.67396,6 11.90777,1.24508 c 6.54927,0.6848 12.03495,1.37227 12.1904,1.52772 0.72688,0.72688 2.19037,16.30175 1.58336,16.85045 -0.37922,0.34279 -5.63285,2.06252 -11.67473,3.82161 -6.04188,1.75909 -11.32249,3.72863 -11.73469,4.37675 -0.41219,0.64811 -0.75634,4.35069 -0.76476,8.22795 l -0.0153,7.04956 10.52962,4.84386 c 5.79129,2.66413 10.70847,5.13325 10.92706,5.48693 0.2186,0.35369 -0.36597,4.22665 -1.29903,8.60658 l -1.69647,7.96351 -9.48059,-0.26944 c -5.21432,-0.14819 -10.90411,-0.49877 -12.64398,-0.77906 -3.02271,-0.48697 -3.27904,-0.25699 -5.76439,5.17171 -1.43055,3.12474 -2.48203,5.76526 -2.33661,5.86784 0.14541,0.10257 11.73939,9.39893 25.76439,20.65858 14.025,11.25965 37.20609,29.72894 51.51354,41.04287 14.30744,11.31393 27.85168,22.56493 30.09831,25.00223 8.89658,9.65165 12.99378,20.61445 12.10355,32.38526 -2.50968,33.18377 -44.17622,46.30717 -74.7154,23.53255 -3.575,-2.66606 -27.09256,-23.11388 -52.26124,-45.4396 l -45.76125,-40.59222 -3.57832,2.11126 c -1.96808,1.1612 -3.79572,2.67777 -4.06141,3.37017 -0.2657,0.6924 0.25133,6.24889 1.14896,12.34776 0.89763,6.09887 1.36131,11.52693 1.03041,12.06234 -0.61546,0.99582 -12.6738,5.02775 -15.03654,5.02775 -0.71979,0 -3.93489,-4.74777 -7.14466,-10.55059 l -5.83596,-10.5506 -5.43493,0.64566 c -10.43461,1.2396 -9.43866,-0.21082 -13.35936,19.45553 l -1.29584,6.5 h -8.94173 -8.94172 l -2.11686,-11.30364 c -1.16427,-6.21701 -2.52021,-11.66872 -3.0132,-12.11491 -1.76256,-1.59523 -13.45519,-3.27752 -14.83292,-2.1341 -0.71283,0.59159 -3.46964,5.16852 -6.12626,10.17093 -2.65661,5.00242 -5.44634,9.33174 -6.1994,9.62072 -1.48818,0.57106 -14.8805,-4.35189 -15.77468,-5.79871 -0.30169,-0.48813 0.1457,-5.86487 0.99419,-11.94829 0.84849,-6.08342 1.54271,-11.26381 1.54271,-11.51199 0,-0.70694 -11.79078,-6.48001 -13.23462,-6.48001 -0.71041,0 -4.87983,3.15 -9.26538,7 -4.38555,3.85 -8.57632,7 -9.31282,7 -1.87565,0 -13.18718,-8.85495 -13.18718,-10.32326 0,-0.6635 0.94064,-2.9614 2.09032,-5.10644 l 2.09032,-3.90009 -2.97036,2.4994 c -1.6337,1.37467 -24.87815,23.38637 -51.65433,48.91489 l -48.683964,46.4155 -9.186,4.24181 c -9.596028,4.43116 -10.073947,4.55696 -12.967942,3.41361 z m 11.862577,-12.67815 c 9.367185,-8.99262 14.993575,-13.23641 16.092205,-12.13777 0.26784,0.26783 -0.21255,1.55459 -1.06753,2.85945 -1.45508,2.22074 -1.42809,2.37248 0.42197,2.37248 1.25267,0 37.772524,-34.00563 99.724604,-92.85904 53.76147,-51.07247 99.30138,-94.38679 101.19979,-96.25404 l 3.45166,-3.395 -3.07979,-4.28167 c -1.69388,-2.35493 -4.1853,-4.9173 -5.53648,-5.69416 -2.41721,-1.38977 -4.07098,0.10361 -102.87187,92.89499 -55.22835,51.86911 -100.977684,95.00324 -101.665184,95.85361 -1.87318,2.31695 -1.50748,3.37205 0.75,2.16388 4.76,-2.54747 1.13507,4.49663 -4.631434,9 -8.368401,6.53532 -17.195102,19 -13.454608,19 0.411011,0 5.211011,-4.28523 10.666667,-9.52273 z m -0.624958,5.54511 c 3.24425,-1.63769 6.182983,-3.43769 6.530503,-4 0.91518,-1.4808 2.76872,-1.2602 1.91252,0.22762 -0.39564,0.6875 -0.38469,0.95 0.0243,0.58333 0.40902,-0.36666 0.66226,-0.97122 0.56278,-1.34346 -0.0995,-0.37223 1.0722,-1.98473 2.60376,-3.58333 l 2.78463,-2.90654 h -2.74961 c -1.98105,0 -4.97001,1.95659 -10.693438,7 -4.369105,3.85 -7.703139,7 -7.408964,7 0.294175,0 3.18925,-1.33993 6.433499,-2.97762 z m 422.250207,-1.80295 c 9.00543,-4.43338 15.11334,-11.27546 17.78381,-19.92144 2.40494,-7.78629 2.51078,-11.95638 0.49947,-19.67833 -1.91304,-7.34465 -5.51639,-13.50334 -11.37963,-19.44956 -2.53524,-2.57111 -17.43331,-14.7987 -33.10684,-27.17242 -15.67353,-12.37373 -52.9338,-42.20804 -82.80062,-66.29849 -29.86681,-24.09044 -54.95552,-44.05109 -55.75268,-44.35699 -0.79716,-0.3059 -1.44938,-0.14244 -1.44938,0.36323 0,0.92214 47.56338,39.22969 99,79.7346 15.125,11.91052 37.72854,29.75239 50.23009,39.64861 27.52778,21.79098 30.76991,25.82253 30.76991,38.26207 0,7.98862 -3.19438,14.68666 -10.07259,21.12042 -12.51686,11.70806 -28.86764,12.56816 -46.1168,2.42588 -6.11832,-3.59749 -7.16679,-4.51603 -59.26734,-51.92297 -21.4738,-19.53928 -57.64418,-52.30434 -80.37863,-72.81125 l -41.33537,-37.28528 -4.81289,4.31124 c -2.64709,2.37119 -4.85867,4.62979 -4.91463,5.01911 -0.056,0.38933 19.81075,18.22331 44.14825,39.63107 41.33157,36.35609 73.17294,64.48247 117.75,104.01191 20.47732,18.1586 26.35185,22.38065 35.97695,25.85681 5.62874,2.03285 8.03403,2.31721 17.5441,2.07409 10.14047,-0.25923 11.55348,-0.54386 17.68482,-3.56231 z M 71.882018,470.33169 c 3.229443,-3.30689 4.82352,-5.7619 4.707531,-7.25 -0.09645,-1.2375 -0.435918,-2.25 -0.754361,-2.25 -1.747906,0 -9.227826,9.39354 -11.944245,15 l -3.149356,6.5 3.128762,-3.5 c 1.72082,-1.925 5.32607,-5.75 8.011669,-8.5 z m 13.957768,-1 c 0.69443,-0.83674 0.80272,-1.5 0.24489,-1.5 -0.55,0 -1.5602,0.675 -2.24489,1.5 -0.69443,0.83674 -0.80271,1.5 -0.24489,1.5 0.55,0 1.5602,-0.675 2.24489,-1.5 z m 402.616504,-2.5564 c 9.85327,-4.76988 17.31738,-15.01389 17.36154,-23.82758 0.04,-7.98349 -1.90016,-12.13637 -8.93067,-19.11602 -3.60105,-3.575 -26.34288,-22.025 -50.5374,-41 -24.19452,-18.975 -60.93497,-48.06715 -81.64545,-64.64923 l -37.65542,-30.14923 -3.73091,3.8208 -3.73091,3.82079 67.87636,54.1483 c 37.332,29.78156 68.0146,54.53159 68.18357,55.00005 0.16896,0.46846 -2.57656,2.22804 -6.10115,3.91018 -6.74874,3.22087 -12.98045,8.82759 -15.73751,14.15916 l -1.64741,3.18573 -9.51908,-8.37328 c -5.23549,-4.6053 -38.6186,-34.24827 -74.18468,-65.87327 -35.56609,-31.625 -65.22577,-57.62547 -65.9104,-57.77882 -0.68464,-0.15335 -2.93519,1.45229 -5.00121,3.5681 l -3.75642,3.84692 32.71472,29.4319 c 17.99309,16.18754 55.91699,50.53833 84.27532,76.33508 28.35834,25.79675 53.78397,48.67018 56.50142,50.82984 5.39842,4.29036 12.81248,8.34497 19.05919,10.42315 5.82134,1.93666 16.24565,1.12946 22.1165,-1.71257 z M 462.643,463.4323 c -17.58677,-4.73448 -25.8071,-23.40718 -16.45461,-37.3771 2.4141,-3.60597 4.76849,-5.52805 10.06323,-8.2154 6.09202,-3.09201 7.77874,-3.50087 14.22067,-3.4471 13.76372,0.1149 25.77708,8.79588 28.27209,20.42973 2.11627,9.86779 -1.86398,19.21021 -10.55935,24.78483 -7.83038,5.02008 -16.35873,6.29724 -25.54203,3.82504 z m 19.9464,-3.16037 c 16.53456,-6.80726 19.4915,-27.71131 5.37012,-37.96399 -9.4302,-6.8467 -20.01405,-7.7663 -30.42663,-2.64367 -10.34166,5.08774 -14.72956,13.23611 -12.56436,23.33213 3.23595,15.08869 22.00169,23.70593 37.62087,17.27553 z m -17.75608,-2.37458 c -7.14514,-2.17345 -14.99353,-9.05691 -14.99353,-13.15012 0,-4.8403 5.83062,-11.69438 12.21788,-14.36249 5.30912,-2.21775 14.96076,-2.01272 19.72743,0.41905 9.83003,5.01491 12.6524,16.35994 5.69581,22.89532 -4.54587,4.27063 -15.64547,6.32819 -22.64759,4.19824 z m 17.32221,-3.19062 c 6.31461,-3.25223 8.29758,-8.5015 5.74637,-15.21167 -3.5243,-9.26963 -21.07112,-11.57534 -30.12343,-3.95832 -2.89344,2.43467 -5.93868,7.13613 -5.93868,9.16856 0,1.81981 5.22921,7.19601 8.87105,9.1204 4.18424,2.21102 17.77798,2.7695 21.44469,0.88103 z m -401.973654,7.67589 c 0.37165,-0.96852 0.0755,-1.26467 -0.89302,-0.89301 -1.58173,0.60696 -1.993685,2.34208 -0.55606,2.34208 0.49116,0 1.14324,-0.65208 1.44908,-1.44907 z M 437.68809,415.61067 c 1.84156,-2.05644 6.40993,-5.27066 10.15194,-7.14271 l 6.80365,-3.40373 -67.65195,-54.11488 -67.65194,-54.11489 -7.93067,-10e-4 c -7.87599,-10e-4 -7.98013,-0.0356 -15.10296,-4.95959 l -7.17229,-4.9582 -2.73444,2.85414 -2.73443,2.85414 40.33739,35.95717 c 109.05914,97.21644 107.17083,95.6019 108.8374,93.05829 0.825,-1.25916 3.00673,-3.97192 4.8483,-6.02836 z M 299.00182,364.41065 c 14.01682,-2.71444 15.06909,-0.55315 -11.75369,-24.14123 -13.09494,-11.51575 -24.853,-21.76509 -26.12901,-22.77632 l -2.32003,-1.83859 -15.47965,14.71251 c -8.51381,8.09188 -15.47965,15.11583 -15.47965,15.60878 0,1.52953 14.54346,10.47936 22.20958,13.66744 4.00973,1.66752 10.44042,3.7054 14.29042,4.52862 9.04017,1.93302 25.33375,2.04527 34.66203,0.23879 z m -71.88859,-50.94528 c 7.57539,-7.14617 13.65039,-13.29326 13.5,-13.6602 -0.69836,-1.7039 -41.90998,-37.00713 -42.65975,-36.54375 -1.56712,0.96854 -2.23414,16.05308 -1.11114,25.12831 0.60858,4.91808 2.45882,12.99196 4.11165,17.94196 3.6588,10.95761 9.50737,21.8406 11.1967,20.83475 0.654,-0.38941 7.38715,-6.55489 14.96254,-13.70107 z m 140.70171,-22.45604 c 0.56367,-4.0273 1.02485,-9.70585 1.02485,-12.61901 0,-7.42047 -2.57163,-21.34058 -5.28086,-28.58498 l -2.2854,-6.1111 -6.18826,4.13236 c -8.94988,5.9765 -17.77838,15.31085 -21.35765,22.58138 -1.68875,3.43033 -2.91203,7.05952 -2.71842,8.06488 0.19362,1.00535 7.75081,7.8141 16.79377,15.13055 l 16.44174,13.30264 1.27269,-4.28718 c 0.69998,-2.35795 1.73387,-7.58224 2.29754,-11.60954 z m -116.62872,0.008 2.84644,-2.99675 -28.15956,-25.34462 c -15.48776,-13.93955 -30.5184,-26.94263 -33.40143,-28.89573 -2.88303,-1.95311 -8.81712,-4.80259 -13.18687,-6.33219 -4.36976,-1.52961 -8.4803,-3.46791 -9.13454,-4.30734 -0.97043,-1.24511 -0.15634,-3.2101 4.41962,-10.66781 4.79717,-7.81822 31.96565,-50.34813 32.93585,-51.55823 0.7037,-0.8777 1.63382,1.09801 5.39576,11.46149 4.4166,12.16693 10.9473,23.28795 17.77021,30.26059 7.1271,7.28351 37.56543,33.03036 38.43599,32.51182 0.42234,-0.25156 -4.07766,-4.31251 -10,-9.02433 -25.26038,-20.09716 -38.69291,-36.8496 -45.75543,-57.06409 -1.36036,-3.89364 -4.24079,-14.69157 -6.40096,-23.99539 -4.93312,-21.24649 -11.22181,-40.27402 -15.95744,-48.281713 -4.37271,-7.39401 -15.26464,-17.960208 -22.06735,-21.407399 -4.92352,-2.494939 -18.21792,-6.590777 -21.06662,-6.490365 -0.83606,0.02947 1.8549,1.059999 5.9799,2.290065 15.51754,4.627296 31,15.763972 31,22.298589 0,2.2165 -3.73652,8.693193 -13.92907,24.143943 l -13.92907,21.11489 -3.31433,-0.95053 c -1.82288,-0.5228 -5.81652,-0.95054 -8.87476,-0.95054 -4.98238,0 -5.87682,0.33787 -8.60374,3.25 -2.57259,2.74731 -10.72293,15.22719 -20.30005,31.08363 l -2.31547,3.83363 5.26342,5.32963 c 4.23034,4.28355 5.14733,5.79219 4.67195,7.68627 -0.96179,3.83209 -4.57769,7.08831 -7.03757,6.33754 -1.17222,-0.35776 -9.03877,-2.40349 -17.48123,-4.54607 -8.442464,-2.14258 -15.990124,-4.42691 -16.772584,-5.07629 -0.88276,-0.73263 -1.17033,-1.981 -0.75776,-3.28952 0.74056,-2.34879 13.23794,-22.68776 27.311414,-44.44819 12.22034,-18.89511 13.38135,-21.62438 12.89093,-30.30359 C 121.13026,97.280587 119.82602,96.180687 101.83979,89.972241 70.75167,79.241323 67.066861,77.332471 71.368434,74.187084 c 2.336198,-1.708269 1.979453,-1.69545 -4.243178,0.152472 -2.828941,0.840106 -5.39435,2.279371 -5.79294,3.25 -0.393476,0.958175 -0.949376,5.862512 -1.235333,10.898526 l -0.519922,9.156395 2.923093,1.511593 c 1.607701,0.83137 13.704314,5.86649 26.881362,11.18916 13.177054,5.32267 24.512734,10.20511 25.190404,10.84987 0.96776,0.92076 0.43135,2.47413 -2.5,7.23967 -7.73,12.56677 -9.03518,13.02611 -11.63189,4.09372 -0.86903,-2.98933 -2.17832,-5.93168 -2.909554,-6.53854 -1.96359,-1.62963 -56.482168,-17.45225 -58.054588,-16.84886 -1.696371,0.65096 -4.208136,23.79648 -3.185185,29.35097 2.00085,10.86436 6.830984,17.19241 25.058219,32.82925 7.333276,6.2911 13.619588,12.3406 13.969581,13.44333 0.349994,1.10273 0.160461,5.4265 -0.421183,9.60837 -0.581645,4.18187 -1.057536,9.97906 -1.057536,12.88264 v 5.27924 l 11.842422,5.55955 c 16.195484,7.60314 22.592034,9.39033 44.104204,12.32266 25.04052,3.41329 35.00198,5.73116 44.5215,10.35943 8.6303,4.19594 14.39915,8.80704 48.53188,38.79204 l 20.5,18.00889 2.5,-1.78151 c 1.375,-0.97983 3.78089,-3.13005 5.34643,-4.77826 z M 159.6448,200.11871 c -0.86459,-0.98286 -2.48062,-3.58702 -3.59118,-5.78702 -4.32591,-8.56959 -9.20048,-10.93705 -20.71383,-10.06023 -9.78041,0.74484 -11.12048,0.10965 -8.58044,-4.0671 3.14828,-5.17692 14.44949,-7.23146 22.08044,-4.01417 6.74404,2.84336 11.68715,7.30271 14.5254,13.10388 2.26434,4.62816 2.58299,6.1685 1.82371,8.81594 -1.07118,3.73497 -3.31153,4.54668 -5.5441,2.0087 z m 1.91493,-7.40542 c -4.76134,-11.36376 -18.06498,-17.68906 -28.25206,-13.43263 -1.90733,0.79694 -3.46788,1.65439 -3.46788,1.90544 0,0.25106 3.54369,0.21358 7.87486,-0.0833 6.96216,-0.47719 8.35138,-0.27194 11.98626,1.77098 4.04164,2.27153 7.79692,6.75664 10.24409,12.23503 1.8098,4.05151 3.35531,1.75866 1.61473,-2.39553 z m 5.16901,-6.11812 c -0.8416,-0.69491 -3.0734,-3.89429 -4.95957,-7.10973 -4.84798,-8.26462 -8.68649,-10.10133 -19.37758,-9.27211 -9.76614,0.75748 -11.65762,-0.045 -9.14495,-3.87982 3.95659,-6.03852 15.10536,-7.44294 24.11038,-3.03719 9.36749,4.58309 16.14108,14.93656 13.90705,21.25702 -1.10728,3.13266 -2.47081,3.74652 -4.53533,2.04183 z m 1.64154,-6.62465 c -0.90902,-4.13877 -8.10996,-12.04283 -12.99178,-14.26036 -4.88283,-2.21798 -11.37512,-2.39149 -16.07083,-0.4295 -1.90733,0.79694 -3.46788,1.59055 -3.46788,1.76359 0,0.17303 4.1945,0.30849 9.32111,0.30102 8.69877,-0.0127 9.56909,0.17523 13.03541,2.81433 2.04288,1.55534 5.10289,5.28833 6.80005,8.29551 3.30162,5.85016 4.43811,6.36062 3.37392,1.51541 z m 4.65893,-7.17699 c -1.20324,-1.12098 -3.14052,-3.93348 -4.30507,-6.25 -4.99013,-9.92629 -9.10023,-11.78734 -22.49621,-10.18628 -6.70532,0.8014 -8.00391,0.064 -6.9914,-3.97017 1.31652,-5.24541 15.17626,-7.287 23.60326,-3.47685 10.46433,4.73131 17.82913,16.48363 14.43858,23.04024 -0.81947,1.58467 -1.61853,2.88122 -1.7757,2.88122 -0.15717,0 -1.27022,-0.91717 -2.47346,-2.03816 z m -0.1207,-10.82713 c -4.96462,-9.73146 -18.16824,-14.72028 -27.85084,-10.52309 -4.7819,2.07285 -2.57948,2.91451 3.69055,1.41035 9.27754,-2.22565 17.60946,2.28715 22.87182,12.38801 2.14425,4.1158 2.71754,4.67407 2.99527,2.91679 0.1889,-1.19527 -0.57916,-3.9817 -1.7068,-6.19206 z m -93.275984,2.16243 C 63.586166,153.19237 49.233967,138.31171 43.28924,126.44734 c -3.460709,-6.90682 -4.547684,-13.81887 -2.383469,-15.15643 0.586293,-0.36235 12.617461,2.6373 26.735929,6.66588 32.11507,9.16376 31.69809,8.87957 31.69809,21.60382 v 8.89433 l -6.000004,9.16276 c -3.3,5.03952 -6.54326,9.37779 -7.20726,9.64059 -0.66399,0.26281 -3.58899,-1.14545 -6.5,-3.12946 z m 11.13884,-8.56966 c 4.38187,-6.63742 5.51526,-9.22045 5.86454,-13.36541 0.49466,-5.87022 -1.17495,-11.97005 -3.6262,-13.24809 -2.02846,-1.0576 -47.360642,-14.11398 -49.004226,-14.11398 -4.608383,0 3.713577,15.48851 14.449976,26.89374 7.125638,7.56953 24.56401,22.16566 26.384,22.08374 0.27518,-0.0124 2.94454,-3.72489 5.93191,-8.25 z M 320.75455,289.31465 c 3.23797,-3.02874 5.00568,-5.58226 5.36506,-7.75 3.15473,-19.02891 23.05716,-38.49362 49.44118,-48.35377 l 7.70419,-2.87919 58.03741,-56.39222 58.0374,-56.39222 -0.0463,-7.27665 c -0.0415,-6.51445 -0.48695,-8.14931 -4.25289,-15.607783 -2.31361,-4.582118 -5.45196,-9.765388 -6.97412,-11.518377 l -2.76755,-3.187252 0.36129,3.788557 c 0.31064,3.257303 -0.13236,4.265142 -3.15919,7.187252 -42.74746,41.268593 -125.88707,119.096663 -129.42468,121.156123 -12.54457,7.30294 -21.23656,5.33944 -21.23656,-4.79727 0,-5.17279 2.52641,-10.77931 7.88311,-17.49391 5.95258,-7.46153 122.03619,-117.380611 125.14693,-118.501096 4.56217,-1.643288 4.47107,-2.26746 -0.43839,-3.003679 -5.18542,-0.777602 -12.02994,0.04699 -15.25339,1.837657 -1.18895,0.660479 -28.15976,25.872735 -59.93513,56.027228 l -57.7734,54.82636 -6.40271,13.10123 c -5.92339,12.12043 -7.08862,13.78333 -15.56487,22.21257 -9.66022,9.60665 -18.229,14.76749 -29.16215,17.56389 -2.75,0.70338 -7.025,2.86798 -9.5,4.81023 -2.475,1.94225 -4.63497,3.62013 -4.79993,3.72862 -0.16496,0.1085 0.005,2.49868 0.3785,5.31153 0.45311,3.41567 2.17363,7.6267 5.18029,12.67894 l 4.50186,7.56467 2.77579,-2.65937 c 1.92495,-1.84423 3.38933,-2.46465 4.77741,-2.02409 2.47913,0.78685 9.46173,8.25765 11.62134,12.43386 1.55383,3.00479 1.52472,3.17323 -0.91519,5.29469 -1.38604,1.20515 -2.52007,2.49632 -2.52007,2.86927 0,0.37294 2.5875,2.42929 5.75,4.56966 4.32887,2.92976 7.10934,4.0354 11.25,4.47347 3.025,0.32004 5.85678,0.65754 6.29284,0.75 0.43606,0.0925 2.96593,-1.86456 5.62192,-4.34893 z m -29.42334,-24.34794 c -4.69349,-2.13221 -9.98788,-7.82786 -12.61366,-13.56964 l -1.85914,-4.06538 5.24069,-4.80828 c 7.00793,-6.4297 10.16704,-7.69172 19.25403,-7.69172 6.71199,0 7.85795,0.28038 10.03211,2.45455 5.10723,5.10722 1.42566,15.55416 -8.47097,24.03752 -3.53403,3.02936 -6.68403,5.49805 -7,5.48597 -0.31596,-0.0121 -2.37834,-0.84144 -4.58306,-1.84302 z m 10.7252,-5.76244 c 2.90586,-2.54508 6.02373,-6.25758 6.92861,-8.25 4.66947,-10.2816 2.79154,-14.1264 -6.89523,-14.117 -8.14342,0.008 -12.05231,1.43385 -17.60128,6.42087 -5.47119,4.91714 -5.50803,5.70678 -0.5833,12.50517 3.15857,4.36027 8.27204,8.05837 11.1512,8.06464 0.94414,0.002 4.09414,-2.0786 7,-4.62368 z m -37.71662,18.52291 c 0,-0.3619 -13.24006,-12.52393 -29.42235,-27.02674 -16.18229,-14.50281 -30.32295,-27.59325 -31.42368,-29.08986 -1.65922,-2.25595 -1.80848,-3.14436 -0.87319,-5.19711 1.72416,-3.78411 5.569,-5.8835 9.2817,-5.06806 1.92035,0.42178 11.95692,7.71176 25.79064,18.73281 12.45578,9.92328 23.28379,18.53983 24.06223,19.1479 1.19362,0.93237 1.31496,0.36762 0.77454,-3.60492 -0.55995,-4.11617 -0.36409,-4.9043 1.55233,-6.24661 1.90904,-1.33714 2.00301,-1.70868 0.72545,-2.86817 -0.80722,-0.73263 -8.55091,-7.3039 -17.2082,-14.60282 -8.65729,-7.29892 -17.98546,-15.72708 -20.72926,-18.72924 -6.69507,-7.32546 -12.36581,-17.00223 -16.15748,-27.57174 -1.7223,-4.80099 -3.51347,-8.49296 -3.9804,-8.20439 -0.78075,0.48254 -30.13312,47.20738 -32.7043,52.06065 -1.05856,1.9981 -0.67876,2.29065 6.25825,4.82072 12.58516,4.59007 12.83732,4.7866 57.5234,44.83504 l 18.46968,16.55284 4.03032,-3.64115 c 2.21668,-2.00264 4.03032,-3.93725 4.03032,-4.29915 z m 5.20239,-4.09166 c 1.81369,-1.75789 3.29761,-3.55329 3.29761,-3.98977 0,-0.43648 -2.025,-3.95281 -4.5,-7.81406 -2.475,-3.86125 -4.52162,-7.57835 -4.54804,-8.26023 -0.0264,-0.68187 -8.8141,-8.21477 -19.52818,-16.73977 -31.56064,-25.11222 -30.14366,-24.14326 -34.80436,-23.79997 -3.15332,0.23226 -4.34548,0.85001 -5.28131,2.73664 -1.5345,3.09356 -0.79994,4.45188 5.86965,10.85397 7.19327,6.90476 55.17906,50.07387 55.74463,50.14915 0.24882,0.0331 1.93632,-1.37807 3.75,-3.13596 z m 22.27778,-48.14718 c 7.11537,-3.46608 16.97784,-12.10695 22.67166,-19.86348 4.23253,-5.76586 4.25317,-5.73343 -5.62068,-8.83276 -12.92402,-4.05677 -30.90463,-5.11853 -43.05561,-2.54246 -7.26363,1.53992 -21.53047,6.78981 -24.53145,9.02704 -1.88232,1.40326 -1.83288,1.56087 1.55591,4.96023 1.925,1.931 9.30917,8.18954 16.40927,13.90786 l 12.90928,10.39695 6.59072,-1.94836 c 3.6249,-1.0716 9.5068,-3.36886 13.0709,-5.10502 z m 59.25527,-14.91857 c 5.58016,-3.15041 19.78807,-16.3248 102.49883,-95.04276 20.39332,-19.408843 30.26573,-29.470442 30.26573,-30.845705 0,-5.801901 -7.62603,-11.849613 -14.94209,-11.849613 -4.14306,0 -4.55548,0.366606 -64.36384,57.213948 -33.10674,31.46766 -61.477,58.80516 -63.04502,60.74999 -6.48452,8.04282 -9.1136,16.43101 -6.61387,21.1018 1.72116,3.21601 9.24434,2.59946 16.20026,-1.32766 z M 119.38595,189.40159 c 1.55297,-2.37013 1.46718,-2.55065 -3.47695,-7.31616 -2.86484,-2.76133 -5.06921,-5.78029 -5.06921,-6.94245 0,-2.73414 20.17112,-35.02585 24.15951,-38.67668 3.0547,-2.79616 3.34829,-2.85497 12.15185,-2.43406 l 9.02151,0.43132 12.83356,-19.53813 c 7.05847,-10.74596 12.83357,-20.272863 12.83357,-21.170873 0,-2.546943 -10.02864,-11.403736 -16.76034,-14.801883 -13.18651,-6.65653 -33.55094,-9.891561 -51.54844,-8.188828 -14.30068,1.352979 -38.848928,5.320674 -37.958412,6.135159 0.421952,0.385927 8.642188,3.477986 18.267188,6.871243 25.914524,9.136059 25.918034,9.137579 28.056074,12.140189 3.66848,5.151913 4.40473,14.969173 1.68148,22.421253 -0.60297,1.65 -4.69457,8.625 -9.09245,15.5 -24.879024,38.89221 -30.207124,47.77132 -29.244084,48.73435 0.30167,0.30167 7.35977,2.25978 15.684684,4.35135 8.3249,2.09157 15.38626,4.05293 15.69191,4.35858 0.86154,0.86153 1.0671,0.72237 2.76855,-1.87438 z M 94.839786,69.898753 c 7.425004,-1.158148 18.225004,-2.484409 24.000004,-2.947247 l 10.5,-0.841523 -9.19878,-0.139145 c -10.74225,-0.162493 -28.626244,2.039875 -39.301224,4.839846 -8.907096,2.336268 -5.331199,2.103341 14,-0.911931 z m 50.250004,-1.729342 c -0.6875,-0.277412 -1.8125,-0.277412 -2.5,0 -0.6875,0.277413 -0.125,0.504386 1.25,0.504386 1.375,0 1.9375,-0.226973 1.25,-0.504386 z m -7.48834,-1.024799 c -0.95609,-0.250293 -2.75609,-0.259374 -4,-0.02018 -1.24391,0.239193 -0.46166,0.443978 1.73834,0.455078 2.2,0.0111 3.21775,-0.184605 2.26166,-0.434898 z"
       id="path867" />
  </g>
</svg>
