<?xml version="1.0" encoding="UTF-8" standalone="no"?>
<svg
   xmlns:dc="http://purl.org/dc/elements/1.1/"
   xmlns:cc="http://creativecommons.org/ns#"
   xmlns:rdf="http://www.w3.org/1999/02/22-rdf-syntax-ns#"
   xmlns:svg="http://www.w3.org/2000/svg"
   xmlns="http://www.w3.org/2000/svg"
   xmlns:sodipodi="http://sodipodi.sourceforge.net/DTD/sodipodi-0.dtd"
   xmlns:inkscape="http://www.inkscape.org/namespaces/inkscape"
   id="svg"
   version="1.1"
   width="505.01053"
   height="448.75098"
   viewBox="0 0 505.01052 448.75098"
   sodipodi:docname="logo.svg"
   inkscape:version="1.0.2 (e86c870879, 2021-01-15, custom)">
  <metadata
     id="metadata2188">
    <rdf:RDF>
      <cc:Work
         rdf:about="">
        <dc:format>image/svg+xml</dc:format>
        <dc:type
           rdf:resource="http://purl.org/dc/dcmitype/StillImage" />
        <dc:title></dc:title>
      </cc:Work>
    </rdf:RDF>
  </metadata>
  <defs
     id="defs2186" />
  <sodipodi:namedview
     pagecolor="#ffffff"
     bordercolor="#666666"
     borderopacity="1"
     objecttolerance="10"
     gridtolerance="10"
     guidetolerance="10"
     inkscape:pageopacity="0"
     inkscape:pageshadow="2"
     inkscape:window-width="1920"
     inkscape:window-height="1045"
     id="namedview2184"
     showgrid="false"
     fit-margin-top="10"
     fit-margin-left="10"
     fit-margin-right="10"
     fit-margin-bottom="10"
     inkscape:pagecheckerboard="true"
     inkscape:zoom="0.54017939"
     inkscape:cx="29.260401"
     inkscape:cy="254.73916"
     inkscape:window-x="0"
     inkscape:window-y="35"
     inkscape:window-maximized="0"
     inkscape:current-layer="layer10"
     lock-margins="true" />
  <g
     inkscape:groupmode="layer"
     id="layer6"
     inkscape:label="Gear"
     style="display:inline"
     transform="translate(-689.90898,-718.33054)">
    <path
       d="m 960.30572,803.00366 -3.7506,10.585 -8.75141,0.2501 -8.7514,0.25 -3.75061,-10.5017 c -2.58374,-7.0844 -4.16733,-10.4183 -5.00079,-10.4183 -0.66678,0.083 -4.58408,0.7501 -8.75141,1.5002 l -7.5012,1.4169 -0.25004,11.7519 -0.25004,11.8352 -7.58456,2.5838 c -4.91745,1.5836 -8.00128,2.2504 -8.58471,1.7503 -0.50008,-0.4168 -3.7506,-4.3341 -7.16782,-8.7514 -4.16733,-5.4176 -6.58439,-7.8347 -7.58455,-7.5846 -0.75012,0.1667 -4.33403,2.0837 -8.00128,4.2507 l -6.5844,3.9173 3.16718,9.7516 c 1.75028,5.3341 3.33387,10.2516 3.58391,10.9184 0.33339,0.8334 -1.50024,2.8338 -5.91762,6.251 -3.50056,2.7504 -6.58438,4.9174 -6.91778,4.8341 -0.33338,-0.083 -4.75076,-2.6671 -10.0016,-5.8343 l -9.41818,-5.5842 -4.58407,4.9174 c -8.00129,8.7514 -8.00129,7.4179 -0.25004,17.5029 3.7506,4.834 6.75108,8.9181 6.75108,9.0847 0,0.5001 -7.41785,12.4187 -8.16797,13.1688 -0.41674,0.4168 -5.66758,-0.3333 -11.83524,-1.8336 -6.08431,-1.4169 -11.16845,-2.4171 -11.33515,-2.3337 -0.91682,1.0835 -6.16766,15.2524 -5.91762,16.0859 0.33339,0.7501 8.08464,6.251 18.00289,12.7521 0.25004,0.083 -0.41673,3.7506 -1.50024,8.0013 -2.16701,9.0014 -0.58342,8.0846 -16.08591,9.7515 l -8.83475,1.0002 -0.66678,8.0013 c -0.41674,4.4173 -0.75012,8.3346 -0.75012,8.8347 0,0.4168 4.66742,2.167 10.41834,3.7506 5.75093,1.667 10.91842,3.1672 11.58519,3.4172 0.83347,0.2501 1.2502,2.5838 1.50024,8.2514 l 0.41674,7.9179 -10.1683,4.5007 c -5.50088,2.5004 -10.25165,4.8341 -10.50169,5.1675 -0.33338,0.5834 3.58391,16.586 4.25068,17.2528 0.1667,0.1667 5.41754,-0.083 11.75189,-0.5834 6.33435,-0.5001 11.58519,-0.8335 11.66854,-0.6668 0.16669,0.083 1.75029,3.4172 3.50057,7.25114 l 3.25052,7.0845 -8.75141,8.3347 -8.7514,8.3347 4.83411,7.3344 c 2.66709,4.0007 5.25084,7.2512 5.75092,7.2512 0.50008,0 5.58423,-2.0836 11.25181,-4.584 l 10.41834,-4.5841 5.16749,5.5842 c 2.91714,3.1672 5.25084,5.9177 5.33419,6.1677 0,0.25 -2.41705,5.0008 -5.41753,10.585 -3.00049,5.6676 -5.41754,10.5017 -5.41754,10.9185 0,0.5834 10.0016,8.5013 13.16878,10.4182 0.75012,0.4168 3.7506,-1.8336 9.16813,-6.751 4.41738,-4.084 8.58472,-7.7513 9.16815,-8.0846 0.91681,-0.5835 12.91874,5.4175 13.83556,6.8344 0.16668,0.3334 -0.41674,5.4175 -1.25021,11.4185 -0.91681,6.0009 -1.50024,11.3351 -1.41689,12.0019 0.25004,0.9168 14.00225,6.7511 16.08591,6.7511 0.50008,0 3.00048,-4.2507 5.66758,-9.4182 7.08447,-13.6688 5.75092,-12.5853 14.66903,-11.0018 7.00111,1.3336 7.50119,1.5837 7.91793,3.584 0.25004,1.2502 1.2502,6.6677 2.25036,12.0852 l 1.83363,9.7516 h 8.9181 8.83475 l 2.25036,-11.8352 c 1.16686,-6.4177 2.58375,-12.0019 3.08383,-12.3354 1.00016,-0.6667 14.16894,-2.7504 14.58568,-2.3337 0.16669,0.1668 2.83378,4.7508 5.83426,10.2517 3.08384,5.5009 5.91762,10.335 6.25097,10.7517 0.6668,0.6668 13.2522,-2.9171 15.8359,-4.5007 0.8335,-0.5001 0.6668,-3.0838 -0.8335,-12.3353 -1.0001,-6.501 -1.6669,-12.252 -1.4169,-12.9188 0.4168,-1.1668 11.3352,-7.2511 13.0855,-7.2511 0.5001,0 4.9174,3.5839 9.7515,7.9179 4.9175,4.334 9.1682,7.9179 9.5849,7.9179 0.3334,0 3.6673,-2.3337 7.2512,-5.1674 l 6.6677,-5.1675 -2.0003,-3.3339 c -1.0835,-1.917 -3.834,-6.9178 -6.1677,-11.2518 l -4.0839,-7.918 5.0008,-5.6676 c 2.8337,-3.0838 5.5842,-5.6675 6.1676,-5.6675 0.6668,0 6.0843,2.0837 12.0019,4.6674 6.001,2.5838 11.0852,4.5841 11.2518,4.4174 1.0002,-1.0002 8.7515,-13.4189 8.7515,-14.0023 0,-0.4167 -3.9173,-4.5007 -8.7515,-9.1681 -4.8341,-4.5841 -8.7514,-8.668 -8.7514,-9.0015 0,-0.4167 1.3336,-3.7506 3.0839,-7.58454 l 3.0838,-6.9178 7.0845,0.5001 c 3.9173,0.25 9.6682,0.6668 12.6687,0.9168 l 5.5842,0.5001 1.8336,-8.0013 c 1.0002,-4.4174 1.667,-8.5014 1.4169,-9.0848 -0.25,-0.5834 -5.1675,-3.0838 -11.0017,-5.5842 -5.8343,-2.5004 -10.7518,-5.0008 -10.9185,-5.4175 -0.1667,-0.5001 0,-4.1674 0.3334,-8.3347 l 0.5835,-7.4179 6.251,-1.8336 c 3.4172,-1.0835 8.9181,-2.6671 12.0852,-3.5839 l 5.9176,-1.7503 -0.9168,-8.2513 c -0.4167,-4.5841 -1.0001,-8.5014 -1.2502,-8.6681 -0.25,-0.25 -5.6675,-0.9168 -12.0852,-1.4169 -6.4177,-0.5834 -11.8353,-1.1668 -11.9186,-1.3335 -0.1667,-0.083 -1.2502,-3.6673 -2.3337,-8.0013 -1.917,-7.3345 -1.917,-7.8346 -0.5001,-8.8348 0.7501,-0.5834 5.3342,-3.7506 10.0016,-6.9178 9.8349,-6.751 9.5015,-5.6675 4.8341,-15.9191 l -3.0005,-6.3344 -11.0017,2.8338 c -6.0844,1.5836 -11.6686,2.8338 -12.3354,2.8338 -1.0835,0 -9.1681,-12.1687 -9.1681,-13.7522 0,-0.4168 3.1672,-4.9175 7.0845,-10.085 3.9173,-5.2508 7.0844,-9.8349 7.0844,-10.2516 0,-1.4169 -11.8352,-11.7519 -12.8353,-11.1685 -0.5001,0.25 -5.0842,3.2505 -10.2517,6.5844 l -9.3348,6.0843 -6.3344,-5.0842 c -3.4172,-2.7504 -6.251,-5.4175 -6.251,-5.9175 0,-0.5001 1.5003,-5.751 3.4172,-11.6686 1.8337,-5.9176 3.2506,-10.8351 3.0839,-11.0018 -0.1667,-0.083 -3.6673,-1.917 -7.8346,-4.0006 l -7.5846,-3.8339 -6.1676,8.0012 c -3.4173,4.334 -6.5844,8.418 -7.1679,9.1681 -0.8334,1.0836 -2.0003,0.9169 -9.33478,-1.5002 l -8.41802,-2.7504 v -11.9186 c 0,-6.5844 -0.25004,-11.9186 -0.58343,-11.9186 -0.66677,0 -9.00144,-1.2502 -14.00225,-2.0836 l -2.5004,-0.4168 z m 9.58488,57.5926 c 52.4251,13.0854 80.1795,69.5111 58.7594,119.4358 -8.2513,19.25314 -25.0873,36.42254 -43.92369,44.92394 -18.50297,8.3347 -41.17328,9.5849 -60.67641,3.5005 -41.59001,-13.002 -67.34415,-56.50904 -59.50955,-100.26614 2.00032,-11.1684 8.33467,-25.5041 15.16909,-34.6722 4.83412,-6.3343 15.41915,-16.5026 21.42011,-20.4199 10.08495,-6.6678 22.00354,-11.5019 33.58873,-13.7522 8.33467,-1.5836 26.42091,-0.9169 35.17232,1.2502 z"
       id="path2873"
       style="fill:#000000;stroke:none;stroke-width:0.0833465" />
  </g>
  <g
     inkscape:groupmode="layer"
     id="layer7"
     inkscape:label="Wrench outline"
     style="display:inline"
     transform="translate(-689.90898,-718.33054)">
    <path
       id="path2805-5"
       style="display:inline;fill:#ffffff;stroke-width:0.038;stroke-miterlimit:4;stroke-dasharray:none"
       d="m 789.44336,734.12891 c -9.36569,0.0764 -19.50681,1.35305 -37.14453,4.35742 -7.30844,1.20551 -13.33564,2.22265 -13.48633,2.22265 -0.11302,0 -0.22656,0.48961 -0.22656,1.05469 0,0.90414 0.26402,1.12967 1.80859,1.73242 10.73662,4.10629 25.80451,9.56971 33.52735,12.09375 9.87015,3.2775 11.1518,3.84209 13.14843,5.91407 4.40767,4.55835 5.12241,15.89796 1.50586,23.77148 -0.48974,1.0925 -3.16398,5.49945 -5.91406,9.71875 -7.79818,11.94214 -12.92192,19.96687 -23.24414,36.42969 -10.47291,16.68885 -10.6613,17.10221 -8.36328,18.49609 0.60276,0.37673 3.01392,1.05575 5.34961,1.50781 6.36662,1.28086 23.09419,5.5763 26.07031,6.74415 1.46922,0.56508 2.74914,1.01562 2.9375,1.01562 0.4144,0 4.78463,-6.70587 4.55859,-7.04492 -0.11301,-0.15069 -2.18467,-2.10797 -4.5957,-4.29297 -2.41103,-2.22267 -4.70865,-4.52224 -5.12305,-5.125 -1.43155,-2.26034 -0.94237,-3.4276 6.44141,-15.06836 3.69189,-5.87689 8.24976,-13.10982 10.0957,-16.08594 3.76724,-6.02757 6.25363,-9.00377 8.36328,-10.05859 2.07198,-1.01715 11.07562,-0.90444 15.29493,0.15039 l 2.93945,0.75391 7.83594,-11.7168 c 20.11703,-30.2509 20.26715,-30.51359 19.25,-33.26367 -0.48974,-1.28086 -5.08692,-6.0658 -8.28907,-8.58985 -9.56877,-7.64748 -23.80761,-12.6954 -39.81836,-14.12695 -4.56777,-0.41204 -8.66474,-0.62456 -12.92187,-0.58984 z m -80.35742,43.96093 c -0.59511,-0.0212 -0.66746,0.25433 -0.86524,1.27149 -0.45207,2.52405 0.75386,7.08055 3.24024,12.01562 5.76387,11.56541 19.21402,25.39298 36.1289,37.25977 2.56172,1.80827 4.85852,3.20034 5.04688,3.125 0.22603,-0.0753 1.50764,-1.88197 2.82617,-4.0293 1.31853,-2.18499 3.46662,-5.3876 4.78516,-7.1582 4.52068,-6.14059 5.64903,-9.37977 5.34765,-15.5957 -0.18836,-4.93508 -1.24224,-8.62698 -2.9375,-10.58594 -1.3562,-1.5069 -1.35653,-1.50855 -18.79882,-6.55664 -7.15775,-2.03431 -17.40387,-5.01012 -22.79102,-6.55469 -5.38715,-1.58224 -10.43601,-2.9372 -11.18945,-3.08789 -0.33905,-0.0565 -0.5946,-0.0965 -0.79297,-0.10352 z m 110.49804,35.69922 c -3.18817,0.0684 -6.50671,0.76762 -9.30859,2.03906 -1.88362,0.86647 -2.37351,1.39204 -3.12695,3.38868 -0.33905,0.90413 -0.26309,0.98122 1.6582,1.58398 1.95896,0.60276 2.03467,0.6017 5.72656,-0.45312 4.37,-1.28086 7.38346,-1.31767 11,-0.1875 5.65086,1.73292 9.49429,5.80064 12.6211,13.25976 0.75344,1.73293 1.50628,2.86262 2.52343,3.69141 l 1.46875,1.16797 1.01758,-1.50586 c 0.94181,-1.43155 0.98024,-1.65796 0.60352,-3.50391 -1.46922,-7.38378 -6.06521,-13.26127 -13.07227,-16.68945 -1.84594,-0.90414 -4.40915,-1.92128 -5.65234,-2.22266 -1.68113,-0.42381 -3.54608,-0.60941 -5.45899,-0.56836 z m -4.88671,13.75391 c -1.79415,-0.0659 -3.57434,0.22676 -5.85352,0.86719 -5.23646,1.46922 -5.87652,1.84512 -7.08203,4.10546 l -1.01758,1.92188 1.84766,0.45117 c 1.61991,0.37673 2.29792,0.34021 4.97265,-0.33789 6.96939,-1.7706 13.18436,-0.64058 17.96875,3.27734 2.03431,1.65759 5.04813,6.17819 6.14063,9.1543 0.64043,1.69526 1.28164,2.63602 2.5625,3.72852 0.94181,0.82879 1.8454,1.35772 1.99609,1.20703 0.15069,-0.15069 0.52675,-1.2437 0.82813,-2.44922 0.48974,-1.92129 0.4903,-2.37393 -0.0371,-4.14453 -1.05483,-3.61655 -3.16451,-7.04481 -6.14063,-10.0586 -3.31516,-3.27749 -5.95144,-4.93451 -10.24609,-6.4414 -2.33569,-0.79112 -4.14531,-1.21532 -5.93945,-1.28125 z m 59.92382,0.56641 c -0.22603,0 -36.88195,59.03088 -37.07031,59.70898 -0.11302,0.33905 6.32824,2.93849 9.71875,3.91797 5.95223,1.73293 12.62093,5.42489 18.12109,10.05859 2.93845,2.48638 4.14369,3.54088 78.69727,70.59766 54.92629,49.42612 100.66031,90.86612 143.90821,130.53512 12.8463,11.7538 25.1275,22.7161 27.3125,24.336 6.0652,4.5583 13.3371,7.9503 21.0976,9.834 3.3906,0.7911 10.5481,0.6025 14.127,-0.377 8.2879,-2.3357 16.0111,-8.2127 20.4941,-15.6719 6.442,-10.6989 4.4447,-22.9435 -5.3125,-32.4746 -1.5069,-1.5069 -12.5821,-10.3963 -24.5996,-19.8144 -70.0705,-54.851 -142.28847,-112.60346 -176.30661,-140.97074 -61.85799,-51.57344 -66.30478,-55.45305 -71.91797,-62.38476 -7.19541,-8.96602 -11.56472,-17.36629 -15.85937,-30.62696 -1.16784,-3.65421 -2.25947,-6.66796 -2.41016,-6.66796 z m -67.08984,13.45312 c -1.29499,0.0424 -2.62317,0.37129 -4.90234,1.01172 -6.10292,1.73293 -6.25321,1.80775 -7.34571,3.95508 l -0.94336,1.88476 1.43164,0.37696 c 1.88362,0.52741 2.90091,0.52771 5.34961,-0.1504 10.24688,-2.7124 18.72459,0.97844 23.16993,10.13282 0.9418,1.92129 1.69531,3.65482 1.69531,3.88086 0,0.60275 3.35123,3.57816 3.76562,3.31445 0.18836,-0.11302 0.64142,-1.1296 0.98047,-2.25977 0.64043,-2.0343 0.6402,-2.07158 -0.37695,-5.12304 -1.24319,-3.80491 -3.69185,-7.57275 -6.66797,-10.28516 -2.63706,-2.37336 -8.10029,-5.23622 -11.45312,-6.02734 -2.14733,-0.50858 -3.40814,-0.75332 -4.70313,-0.71094 z m 330.19535,254.1895 c 2.8261,-0.023 5.8842,0.2689 7.7207,0.8105 7.4968,2.2227 12.017,7.9472 12.0547,15.1426 0,4.8974 -3.654,8.854 -10.209,11.039 -2.4487,0.7911 -3.4665,0.903 -8.0625,0.8653 -4.6714,0 -5.6124,-0.1116 -8.2871,-1.0156 -3.7672,-1.2432 -6.9696,-3.1283 -9.5313,-5.6524 -3.8426,-3.8049 -4.4083,-6.8931 -1.9219,-11.0371 2.9761,-4.9727 8.0621,-8.59 13.7129,-9.7578 1.215,-0.2543 2.8278,-0.3806 4.5235,-0.3945 z"
       transform="translate(7.1961999e-6,-1.708805e-5)" />
    <g
       transform="matrix(0.03767235,0,0,-0.03767235,701.28994,1153.2208)"
       fill="#000000"
       stroke="none"
       id="g2811"
       style="display:inline;fill:#000000">
      <path
         d="m 1960,11229 c -313,-23 -660,-88 -1039,-196 -237,-67 -253,-85 -271,-298 -25,-304 -27,-339 -19,-374 4,-21 20,-47 38,-61 17,-15 284,-127 638,-268 542,-216 795,-321 811,-336 5,-5 -243,-392 -257,-400 -19,-12 -34,20 -56,117 -47,208 -69,233 -251,287 -71,21 -250,74 -399,118 -306,91 -946,277 -987,286 -37,9 -74,-8 -92,-42 -8,-15 -19,-82 -25,-148 -6,-65 -21,-195 -32,-289 -34,-271 -16,-427 69,-609 98,-209 219,-335 728,-758 219,-183 244,-211 244,-281 0,-20 -9,-96 -19,-169 -56,-382 -59,-499 -14,-541 23,-20 498,-243 634,-298 258,-102 510,-155 1052,-219 362,-43 457,-58 589,-90 220,-55 431,-148 617,-271 127,-85 176,-128 1736,-1499 C 7551,3223 8612,2287 9393,1592 10448,652 10771,369 10868,297 c 319,-238 671,-333 1042,-282 256,35 454,128 616,289 112,113 181,225 227,371 129,410 -22,851 -405,1181 -51,44 -307,249 -568,454 -737,580 -1231,976 -2340,1875 -1706,1383 -2416,1957 -3060,2475 -741,595 -764,614 -911,762 -445,446 -701,939 -819,1578 -76,411 -276,1064 -405,1319 -142,283 -391,535 -664,671 -364,182 -1038,281 -1621,239 z m 723,-120 c 425,-38 803,-172 1057,-375 85,-67 207,-194 220,-228 27,-73 23,-80 -511,-883 l -208,-311 -78,20 c -112,28 -351,31 -406,4 -56,-28 -122,-107 -222,-267 -49,-79 -170,-271 -268,-427 -196,-309 -209,-340 -171,-400 11,-16 72,-77 136,-136 64,-58 119,-110 122,-114 6,-9 -110,-187 -121,-187 -5,0 -39,12 -78,27 -79,31 -523,145 -692,179 -62,12 -126,30 -142,40 -61,37 -56,48 222,491 274,437 410,650 617,967 73,112 144,229 157,258 96,209 77,510 -40,631 -53,55 -87,70 -349,157 -205,67 -605,212 -890,321 -41,16 -48,22 -48,46 0,15 3,28 6,28 4,0 164,27 358,59 681,116 941,135 1329,100 z M 525,9873 c 143,-41 415,-120 605,-174 463,-134 463,-134 499,-174 45,-52 73,-150 78,-281 8,-165 -22,-251 -142,-414 -35,-47 -92,-132 -127,-190 -35,-57 -69,-105 -75,-107 -5,-2 -66,35 -134,83 -449,315 -806,682 -959,989 -66,131 -98,252 -86,319 7,36 8,37 44,31 20,-4 154,-40 297,-82 z m 2760,-878 c 33,-8 101,-35 150,-59 186,-91 308,-247 347,-443 10,-49 9,-55 -16,-93 l -27,-40 -39,31 c -27,22 -47,52 -67,98 -83,198 -185,306 -335,352 -96,30 -176,29 -292,-5 -98,-28 -100,-28 -152,-12 -51,16 -53,18 -44,42 20,53 33,67 83,90 119,54 273,69 392,39 z m -117,-384 c 114,-40 184,-84 272,-171 79,-80 135,-171 163,-267 14,-47 14,-59 1,-110 -8,-32 -18,-61 -22,-65 -4,-4 -28,10 -53,32 -34,29 -51,54 -68,99 -29,79 -109,199 -163,243 -127,104 -292,134 -477,87 -71,-18 -89,-19 -132,-9 l -49,12 27,51 c 32,60 49,70 188,109 121,34 189,31 313,-11 z m 1497,-158 c 114,-352 230,-575 421,-813 149,-184 267,-287 1909,-1656 903,-753 2820,-2286 4680,-3742 319,-250 613,-486 653,-526 259,-253 312,-578 141,-862 -119,-198 -324,-354 -544,-416 -95,-26 -285,-31 -375,-10 -206,50 -399,140 -560,261 -58,43 -384,334 -725,646 C 9117,2388 7903,3488 6445,4800 4466,6580 4434,6608 4356,6674 c -146,123 -323,221 -481,267 -90,26 -261,95 -258,104 5,18 978,1585 984,1585 4,0 33,-80 64,-177 z M 2945,8254 c 89,-21 234,-97 304,-160 79,-72 144,-172 177,-273 27,-81 27,-82 10,-136 -9,-30 -21,-57 -26,-60 -11,-7 -100,72 -100,88 0,6 -20,52 -45,103 -118,243 -343,341 -615,269 -65,-18 -92,-18 -142,-4 l -38,10 25,50 c 29,57 33,59 195,105 121,34 141,35 255,8 z"
         id="path2805"
         style="fill:#ffffff;fill-opacity:1;stroke:#000000;stroke-width:79.634;stroke-miterlimit:4;stroke-dasharray:none;stroke-opacity:1" />
      <path
         d="m 4563,7294 c -51,-30 -93,-97 -93,-145 0,-54 44,-113 186,-246 182,-171 5808,-5185 5860,-5223 l 43,-31 15,35 c 41,99 143,222 251,303 66,51 229,134 312,160 29,9 53,19 52,22 0,3 -17,20 -37,37 -39,32 -6227,4986 -6300,5043 -94,73 -212,92 -289,45 z"
         id="path2807"
         style="fill:none;fill-opacity:1;stroke:#000000;stroke-width:26.5447;stroke-miterlimit:4;stroke-dasharray:none;stroke-opacity:1" />
      <path
         d="m 11485,1916 c -5,-2 -61,-21 -124,-41 -130,-42 -193,-71 -267,-125 -109,-81 -194,-210 -225,-340 -52,-224 46,-477 244,-626 313,-235 772,-211 1037,55 114,115 171,253 171,416 1,269 -185,508 -470,606 -89,31 -332,67 -366,55 z m 305,-412 c 199,-59 319,-211 320,-402 0,-130 -97,-235 -271,-293 -65,-21 -92,-24 -214,-23 -124,0 -149,3 -220,27 -100,33 -185,83 -253,150 -102,101 -117,183 -51,293 79,132 214,228 364,259 86,18 247,12 325,-11 z"
         id="path2809"
         style="fill:#ffffff;stroke:#000000;stroke-width:53.0893;stroke-miterlimit:4;stroke-dasharray:none;stroke-opacity:1" />
    </g>
  </g>
  <g
     inkscape:groupmode="layer"
     id="layer10"
     inkscape:label="Screwdriver 2"
     style="display:inline"
     transform="translate(-689.90898,-718.33054)">
    <g
       inkscape:label="Layer 1"
       id="layer1"
       transform="matrix(0.82824266,0,0,0.82824266,634.6552,500.23328)"
       style="display:inline;fill:#999999;stroke:#000000;stroke-width:4.52816;stroke-miterlimit:4;stroke-dasharray:none;stroke-opacity:1">
      <g
         id="g3195"
         style="fill:#999999;stroke:#000000;stroke-width:4.52816;stroke-miterlimit:4;stroke-dasharray:none;stroke-opacity:1">
        <path
           style="fill:#999999;fill-rule:evenodd;stroke:#000000;stroke-width:4.52816;stroke-linecap:round;stroke-linejoin:round;stroke-miterlimit:4;stroke-dasharray:none;stroke-opacity:1"
           d="m 372.46444,526.62946 -12.39584,-19.94114 -2.1558,-14.55164 12.93479,-10.24005 c 29.38489,-5.58462 52.16636,-24.97639 65.75187,-63.59607 L 578.8822,283.02418 c 37.97177,-16.8228 71.36417,33.36504 65.21287,59.28447 L 503.42923,479.20189 c -46.22625,16.53863 -66.36973,39.16323 -69.52452,65.75187 l -12.39584,11.31794 -15.62954,-0.53895 -19.4022,-13.47374 z"
           id="path3197"
           sodipodi:nodetypes="ccccccccccccc" />
        <path
           style="fill:#999999;fill-rule:evenodd;stroke:#000000;stroke-width:4.52816;stroke-linecap:round;stroke-linejoin:round;stroke-miterlimit:4;stroke-dasharray:none;stroke-opacity:1"
           d="m 605.53224,285.73457 c -2.18377,-0.0603 -4.3535,0.27208 -6.375,1.0625 L 454.18849,424.76582 c -10.55485,11.99772 -14.32545,21.47617 -13.5625,27.5625 1.41917,11.32094 18.45344,10.89809 36.25,-6.96875 l 146.5312,-139.15625 c 4.0205,-7.81067 -2.7631,-16.12122 -11.4062,-19.21875 -2.09236,-0.74987 -4.28498,-1.18971 -6.46875,-1.25 z m -200.8125,198.59375 c -4.01449,-0.01 -8.96289,0.53683 -14.6875,1.34375 l -14.89567,12.83846 c 1.62158,7.33964 11.86009,21.95387 21.92692,21.94279 l 15.0625,-13.21875 c 8.34755,-17.85613 4.63722,-22.877 -7.40625,-22.90625 z"
           id="path3199"
           sodipodi:nodetypes="cccsccsccccccc" />
        <path
           style="opacity:1;fill:#999999;fill-rule:evenodd;stroke:#000000;stroke-width:4.52816;stroke-linecap:round;stroke-linejoin:round;stroke-miterlimit:4;stroke-dasharray:none;stroke-opacity:1"
           d="m 379.21479,519.75102 -260.23831,245.00484 -9.52091,19.04183 3.03141,5.18708 4.12339,1.81374 20.77321,-8.905 257.66451,-245.36985 c 1.32736,-2.09325 -13.15439,-19.90964 -15.8333,-16.77264 z"
           id="path3201"
           sodipodi:nodetypes="cccccccc" />
        <path
           style="fill:#999999;fill-rule:evenodd;stroke:#000000;stroke-width:4.52816;stroke-linecap:round;stroke-linejoin:round;stroke-miterlimit:4;stroke-dasharray:none;stroke-opacity:1"
           d="m 146.93194,762.53524 -5.78882,2.30939 -12.31727,12.31727 -11.57823,9.85381 1.13527,1.25904 16.35525,-8.15671 12.56361,-11.33188 -5.41959,0.73904 z"
           id="path3203"
           sodipodi:nodetypes="ccccccccc" />
        <path
           style="fill:#999999;fill-rule:evenodd;stroke:#000000;stroke-width:4.52816;stroke-linecap:round;stroke-linejoin:round;stroke-miterlimit:4;stroke-dasharray:none;stroke-opacity:1"
           d="m 141.49717,769.6176 -5.03461,0.40029 4.9269,-4.92691 5.60417,-2.24779 z"
           id="path3205"
           sodipodi:nodetypes="ccccc" />
        <path
           style="fill:#999999;fill-rule:evenodd;stroke:#000000;stroke-width:4.52816;stroke-linecap:round;stroke-linejoin:round;stroke-miterlimit:4;stroke-dasharray:none;stroke-opacity:1"
           d="m 139.01829,754.22145 -3.04842,5.69628 -13.0563,11.57823 -9.36113,12.31726 -2.2171,-0.73903 8.86843,-17.49052 14.53437,-13.54899 -2.46345,6.15863 z"
           id="path3207"
           sodipodi:nodetypes="ccccccccc" />
        <path
           style="fill:#999999;fill-rule:evenodd;stroke:#000000;stroke-width:4.52816;stroke-linecap:round;stroke-linejoin:round;stroke-miterlimit:4;stroke-dasharray:none;stroke-opacity:1"
           d="m 132.02834,758.43966 0.49269,4.43421 3.94153,-3.20249 2.18617,-5.32671 z"
           id="path3209"
           sodipodi:nodetypes="ccccc" />
      </g>
      <g
         id="g3186"
         style="fill:#999999;stroke:#000000;stroke-width:4.52816;stroke-miterlimit:4;stroke-dasharray:none;stroke-opacity:1">
        <path
           sodipodi:nodetypes="ccccccccccccc"
           id="path2223"
           d="m 372.46444,526.62946 -12.39584,-19.94114 -2.1558,-14.55164 12.93479,-10.24005 c 29.38489,-5.58462 52.16636,-24.97639 65.75187,-63.59607 L 578.8822,283.02418 c 37.97177,-16.8228 71.36417,33.36504 65.21287,59.28447 L 503.42923,479.20189 c -46.22625,16.53863 -66.36973,39.16323 -69.52452,65.75187 l -12.39584,11.31794 -15.62954,-0.53895 -19.4022,-13.47374 z"
           style="fill:#ffffff;fill-rule:evenodd;stroke:#000000;stroke-width:3.62213;stroke-linecap:round;stroke-linejoin:round;stroke-miterlimit:4;stroke-dasharray:none;stroke-opacity:1" />
        <path
           sodipodi:nodetypes="cccsccsccccccc"
           id="path2225"
           d="m 605.53224,285.73457 c -2.18377,-0.0603 -4.3535,0.27208 -6.375,1.0625 L 454.18849,424.76582 c -10.55485,11.99772 -14.32545,21.47617 -13.5625,27.5625 1.41917,11.32094 18.45344,10.89809 36.25,-6.96875 l 146.5312,-139.15625 c 4.0205,-7.81067 -2.7631,-16.12122 -11.4062,-19.21875 -2.09236,-0.74987 -4.28498,-1.18971 -6.46875,-1.25 z m -200.8125,198.59375 c -4.01449,-0.01 -8.96289,0.53683 -14.6875,1.34375 l -14.89567,12.83846 c 1.62158,7.33964 11.86009,21.95387 21.92692,21.94279 l 15.0625,-13.21875 c 8.34755,-17.85613 4.63722,-22.877 -7.40625,-22.90625 z"
           style="fill:#ffffff;fill-rule:evenodd;stroke:#000000;stroke-width:2.41475;stroke-linecap:round;stroke-linejoin:round;stroke-miterlimit:4;stroke-dasharray:none;stroke-opacity:1" />
        <path
           sodipodi:nodetypes="cccccccc"
           id="path4189"
           d="m 379.21479,519.75102 -260.23831,245.00484 -9.52091,19.04183 3.03141,5.18708 4.12339,1.81374 20.77321,-8.905 257.66451,-245.36985 c 1.32736,-2.09325 -13.15439,-19.90964 -15.8333,-16.77264 z"
           style="opacity:1;fill:#ffffff;fill-rule:evenodd;stroke:#000000;stroke-width:3.62213;stroke-linecap:round;stroke-linejoin:round;stroke-miterlimit:4;stroke-dasharray:none;stroke-opacity:1" />
        <path
           sodipodi:nodetypes="ccccccccc"
           id="path5168"
           d="m 146.93194,762.53524 -5.78882,2.30939 -12.31727,12.31727 -11.57823,9.85381 1.13527,1.25904 16.35525,-8.15671 12.56361,-11.33188 -5.41959,0.73904 z"
           style="fill:#ffffff;fill-rule:evenodd;stroke:#000000;stroke-width:1.20738;stroke-linecap:round;stroke-linejoin:round;stroke-miterlimit:4;stroke-dasharray:none;stroke-opacity:1" />
        <path
           sodipodi:nodetypes="ccccc"
           id="path5175"
           d="m 141.49717,769.6176 -5.03461,0.40029 4.9269,-4.92691 5.60417,-2.24779 z"
           style="fill:#ffffff;fill-rule:evenodd;stroke:#000000;stroke-width:1.20738;stroke-linecap:round;stroke-linejoin:round;stroke-miterlimit:4;stroke-dasharray:none;stroke-opacity:1" />
        <path
           sodipodi:nodetypes="ccccccccc"
           id="path5160"
           d="m 139.01829,754.22145 -3.04842,5.69628 -13.0563,11.57823 -9.36113,12.31726 -2.2171,-0.73903 8.86843,-17.49052 14.53437,-13.54899 -2.46345,6.15863 z"
           style="fill:#ffffff;fill-rule:evenodd;stroke:#000000;stroke-width:1.20738;stroke-linecap:round;stroke-linejoin:round;stroke-miterlimit:4;stroke-dasharray:none;stroke-opacity:1" />
        <path
           sodipodi:nodetypes="ccccc"
           id="path5166"
           d="m 132.02834,758.43966 0.49269,4.43421 3.94153,-3.20249 2.18617,-5.32671 z"
           style="fill:#ffffff;fill-rule:evenodd;stroke:#000000;stroke-width:1.20738;stroke-linecap:round;stroke-linejoin:round;stroke-miterlimit:4;stroke-dasharray:none;stroke-opacity:1" />
      </g>
    </g>
  </g>
</svg>
